<?xml version="1.0" encoding="utf-8"?>
<!-- Generator: Adobe Illustrator 30.0.0, SVG Export Plug-In . SVG Version: 9.03 Build 0)  -->
<svg version="1.0" id="Vrstva_1" xmlns="http://www.w3.org/2000/svg" xmlns:xlink="http://www.w3.org/1999/xlink" x="0px" y="0px"
	 viewBox="0 0 43.3 61.7" style="enable-background:new 0 0 43.3 61.7;" xml:space="preserve">
<style type="text/css">
	.st0{fill-rule:evenodd;clip-rule:evenodd;fill:#D0103A;}
	.st1{fill:#D0103A;}
</style>
<g>
	<path class="st0" d="M13.7,15.3L0,24.9v4.8l13.7-9.6V15.3z M43.3,15.1v28.6H17.7v-7l4-2.8v5.8h17.7V17.2L25.6,7.6V2.8L43.3,15.1z
		 M17.7,22.2L0,34.6v9.2h4v-7.1l17.7-12.4c0-8.1,0-16.2,0-24.3L0,15.1V20L17.7,7.6V22.2z"/>
	<g>
		<path class="st1" d="M8.5,53.8h3c0.4,0,0.7,0.1,1,0.2s0.5,0.3,0.6,0.4s0.3,0.4,0.4,0.6c0.1,0.2,0.1,0.5,0.1,0.8
			c0,0.6-0.1,1-0.3,1.3s-0.5,0.5-1,0.6v0c0.3,0,0.5,0.1,0.7,0.2c0.2,0.1,0.3,0.2,0.4,0.4s0.1,0.4,0.2,0.6s0,0.5,0,0.7
			c0,0.4,0,0.7,0,0.9s0,0.4,0.1,0.5c0,0.1,0.1,0.2,0.1,0.2c0,0,0.1,0.1,0.2,0.1v0.1h-2c-0.1-0.1-0.1-0.3-0.2-0.5c0-0.2,0-0.6,0-1
			c0-0.3,0-0.6,0-0.8s-0.1-0.4-0.1-0.5c-0.1-0.1-0.1-0.2-0.2-0.2c-0.1,0-0.2-0.1-0.4-0.1h-0.7v3.2H8.5V53.8z M10.3,57.1h0.6
			c0.2,0,0.3,0,0.5-0.1c0.1-0.1,0.2-0.1,0.3-0.2c0.1-0.1,0.1-0.2,0.1-0.3c0-0.1,0-0.2,0-0.4c0-0.3-0.1-0.5-0.2-0.7
			c-0.1-0.2-0.4-0.3-0.7-0.3h-0.5V57.1z"/>
		<path class="st1" d="M15.9,53.8h4.5v1.5h-2.6v1.5h2.5v1.5h-2.5v1.8h2.8v1.5h-4.6V53.8z"/>
		<path class="st1" d="M22.5,53.8h1.8v3h0l1.7-3h2l-2,3.3l2.3,4.4h-2l-1.4-2.9l-0.5,0.7v2.2h-1.8V53.8z"/>
		<path class="st1" d="M34.9,57.7c0,0.5,0,1-0.1,1.5s-0.2,0.9-0.3,1.3c-0.2,0.4-0.4,0.7-0.8,0.9s-0.9,0.3-1.5,0.3
			c-0.6,0-1.1-0.1-1.4-0.3c-0.4-0.2-0.6-0.5-0.8-0.8s-0.3-0.8-0.4-1.3c-0.1-0.5-0.1-1-0.1-1.7s0-1.2,0.1-1.7
			c0.1-0.5,0.2-0.9,0.4-1.3c0.2-0.3,0.5-0.6,0.8-0.8c0.4-0.2,0.8-0.3,1.4-0.3c0.6,0,1.1,0.1,1.5,0.3s0.6,0.5,0.8,0.9
			c0.2,0.4,0.3,0.8,0.3,1.3S34.9,57.1,34.9,57.7z M31.4,57.7c0,0.5,0,1,0,1.3c0,0.4,0.1,0.6,0.1,0.9s0.1,0.4,0.2,0.5
			c0.1,0.1,0.3,0.1,0.4,0.1s0.3,0,0.4-0.1s0.2-0.2,0.3-0.5c0.1-0.2,0.1-0.5,0.1-0.9c0-0.4,0-0.8,0-1.3c0-0.5,0-1,0-1.3
			c0-0.4-0.1-0.6-0.1-0.9c-0.1-0.2-0.1-0.4-0.3-0.5s-0.3-0.1-0.4-0.1s-0.3,0-0.4,0.1c-0.1,0.1-0.2,0.2-0.2,0.5s-0.1,0.5-0.1,0.9
			C31.4,56.7,31.4,57.2,31.4,57.7z"/>
	</g>
</g>
</svg>
